<svg version="1.1" id="Layer_1" xmlns="http://www.w3.org/2000/svg" xmlns:xlink="http://www.w3.org/1999/xlink" x="0px" y="0px"
	 width="100%" viewBox="0 0 640 640" enable-background="new 0 0 640 640" xml:space="preserve">
<path fill="#000000" opacity="1.000000" stroke="none" 
	d="
M55.637985,308.263885 
	C57.460754,296.582977 58.286304,285.141113 60.549648,273.885712 
	C72.724411,213.341782 101.883148,162.572662 148.327789,121.881203 
	C183.782745,90.818123 224.862244,70.814270 270.923523,61.131035 
	C281.802765,58.843941 292.815125,56.835396 304.001831,56.721436 
	C307.402710,56.686790 309.144592,55.038116 310.620300,52.410839 
	C314.291382,45.875149 318.021027,39.372200 321.753052,32.871006 
	C322.554291,31.475269 323.465332,30.142550 324.913605,27.850576 
	C329.459625,35.779339 333.907227,42.768780 337.546021,50.156605 
	C339.915497,54.967354 342.879089,56.525990 348.276611,56.861282 
	C372.825653,58.386272 396.744965,63.586773 419.596039,72.621750 
	C509.488373,108.163826 565.726318,173.276581 588.912170,266.971924 
	C592.023499,279.544708 593.812012,292.422363 594.324890,305.410919 
	C594.429321,308.055847 595.455078,309.674042 597.774292,310.934204 
	C604.213135,314.432770 610.563965,318.095367 616.907776,321.765411 
	C618.283020,322.561035 620.089417,322.909210 620.822266,325.164307 
	C616.906067,328.615326 611.855103,330.473785 607.462219,333.340454 
	C605.791931,334.430481 604.074341,335.531921 602.232727,336.260040 
	C596.419800,338.558380 594.624268,342.547333 594.098816,348.908325 
	C591.290161,382.906067 582.283997,415.284302 566.990479,445.865753 
	C553.755005,472.331665 536.649292,496.067719 515.688293,516.840759 
	C488.737000,543.550537 457.467163,563.840027 421.908386,577.369873 
	C397.175079,586.780762 371.666992,592.656189 345.238647,594.344116 
	C341.891846,594.557983 339.730438,595.899841 338.115967,598.861389 
	C334.074341,606.275391 329.798523,613.561768 325.536194,621.040527 
	C322.738678,619.962708 322.199982,617.706482 321.173065,615.940369 
	C317.740173,610.036255 314.347565,604.106995 311.056244,598.123169 
	C309.728882,595.709961 307.995575,594.540100 305.147766,594.333313 
	C264.300568,591.367371 226.129150,579.597046 190.681290,559.104370 
	C149.094421,535.062561 116.352699,502.166382 92.020500,460.740906 
	C76.325172,434.019623 66.041649,405.358276 60.245869,375.032379 
	C58.501335,365.904236 56.874477,356.703461 56.688061,347.369690 
	C56.601189,343.019867 54.725357,340.407013 50.899689,338.408936 
	C43.400482,334.492188 36.117603,330.161224 27.971247,325.565063 
	C36.980068,318.646118 47.145592,315.070007 55.637985,308.263885 
M324.498444,579.666382 
	C344.051025,579.926819 363.349487,577.810791 382.349701,573.215393 
	C445.728302,557.886963 496.455750,523.489075 533.804871,470.269165 
	C573.304688,413.984619 587.126892,351.185608 576.418640,283.374298 
	C569.314209,238.384415 550.877991,198.091232 521.918457,162.851761 
	C495.664948,130.905121 463.473083,106.832680 425.511780,90.174301 
	C382.789215,71.426575 338.428253,65.718567 292.336792,71.167046 
	C252.196960,75.911972 215.538406,90.037247 182.168427,112.538376 
	C146.306763,136.719604 118.341408,168.096451 98.045380,206.411026 
	C81.833199,237.016159 72.048180,269.549500 69.587646,303.916595 
	C67.146286,338.015686 70.743607,371.736115 81.858849,404.309448 
	C101.305717,461.298767 136.011780,506.548462 186.668945,539.314514 
	C228.282669,566.231018 273.855316,579.900330 324.498444,579.666382 
z"/>
<path fill="#000000" opacity="1.000000" stroke="none" 
	d="
M161.441162,517.581543 
	C115.860580,478.124725 86.934143,429.284424 76.002060,370.280243 
	C71.351776,345.181091 70.266708,319.851562 73.437607,294.268707 
	C79.059708,248.909561 95.442703,208.140335 122.979950,171.761444 
	C150.994202,134.752380 186.689331,107.704430 229.564026,90.190674 
	C253.900009,80.249741 279.268524,74.533730 305.549164,72.574219 
	C363.442261,68.257675 416.498810,82.524277 464.818146,114.209137 
	C489.964417,130.698502 511.147522,151.655075 528.866516,175.995514 
	C548.308228,202.702377 561.892883,232.176880 569.682007,264.258911 
	C573.646667,280.588623 575.555176,297.181152 576.516541,314.017914 
	C579.151611,360.167511 568.736633,403.263336 547.129395,443.706818 
	C524.875061,485.361694 493.014008,518.029297 452.373169,542.174438 
	C425.273895,558.274414 396.144531,568.774597 365.107208,573.736755 
	C310.676086,582.439026 258.783447,574.298950 209.495758,549.470642 
	C192.287415,540.802063 176.498444,530.088623 161.441162,517.581543 
M325.294678,449.634949 
	C325.151764,451.078430 323.959290,452.406525 324.944916,454.191284 
	C326.733795,454.930450 328.861877,455.506439 330.662689,456.614380 
	C334.968689,459.263672 338.866821,459.535278 343.042877,456.153839 
	C346.443512,453.400238 350.146973,453.754120 353.521118,456.643341 
	C357.280640,459.862610 361.735535,459.922180 365.685211,457.897125 
	C370.074829,455.646484 373.788727,454.072845 377.773346,458.358917 
	C378.388672,459.020782 379.988861,458.911774 381.134033,458.914032 
	C393.131989,458.937714 405.130524,458.850037 417.127716,458.942810 
	C420.058655,458.965454 421.782135,457.964752 422.656433,455.106812 
	C423.638184,451.897614 426.016388,450.616882 429.268677,451.432312 
	C431.515625,451.995667 433.797729,452.637939 435.866974,453.648560 
	C441.347076,456.324951 446.785522,456.720276 452.105011,453.549133 
	C458.321930,449.842926 464.278381,450.492035 469.887054,454.517181 
	C477.334991,459.862305 484.911957,460.282898 492.826843,455.861755 
	C500.597260,451.521271 508.795685,451.416168 517.004272,453.893097 
	C520.547974,454.962402 522.081787,453.783691 523.804443,451.011505 
	C550.985229,407.271973 563.402466,359.899933 559.877075,308.332764 
	C557.947083,280.102753 551.824890,252.909180 539.513550,227.542801 
	C497.274719,140.513718 427.154358,94.468147 330.938141,88.607430 
	C303.698578,86.948219 276.843933,91.699913 250.868973,100.402237 
	C209.150055,114.379219 173.829895,137.952393 145.265076,171.466080 
	C108.295502,214.840668 89.952690,265.348785 88.431366,322.062714 
	C87.980057,338.887115 89.983292,355.612854 93.392212,372.105316 
	C99.456070,401.442505 110.761429,428.650177 127.158005,453.726044 
	C128.086716,455.146362 128.594055,457.415619 131.080566,456.862671 
	C139.958008,454.888458 149.176102,455.545715 157.965179,452.149170 
	C168.747910,447.982178 179.773071,448.350250 190.342880,453.948669 
	C194.658875,456.234741 199.264435,457.509460 204.272720,455.735138 
	C208.970154,454.070984 213.698059,452.372375 218.546112,451.283783 
	C224.841141,449.870300 230.791077,450.108429 234.773209,456.619934 
	C236.429092,459.327637 242.762054,458.091064 243.998505,454.963013 
	C245.910934,450.124664 248.537628,445.838257 251.801758,441.718262 
	C260.519714,430.714539 267.348969,418.846558 266.771301,404.008667 
	C266.642517,400.699646 266.502258,398.234131 262.594055,397.464203 
	C260.443329,397.040558 258.280518,395.619171 257.987823,393.350311 
	C257.637604,390.635651 255.945679,390.024719 252.538361,389.711121 
	C256.305115,385.046112 252.617157,380.513916 253.931732,376.385773 
	C256.792023,367.403625 258.780731,357.947296 264.914307,350.353455 
	C268.838257,345.495331 272.067810,340.376129 273.346924,334.145264 
	C274.297089,329.516907 277.378082,327.398468 282.035858,327.708069 
	C284.515472,327.872925 286.969635,328.435150 289.449249,328.582855 
	C294.659637,328.893188 297.050354,332.259186 297.101166,336.771240 
	C297.147247,340.858673 298.815002,343.637939 301.390869,346.362579 
	C302.710266,347.758179 303.801636,349.228638 305.983917,348.113647 
	C308.254974,346.953278 308.021729,345.247314 307.519867,343.048828 
	C305.842682,335.701721 310.621765,330.083405 318.206635,329.621918 
	C326.188446,329.136292 329.799591,336.243347 336.626160,339.291016 
	C330.153809,340.422028 330.683350,345.169556 329.337128,349.299042 
	C328.333740,352.376953 327.044678,356.404022 321.715332,356.578247 
	C318.842987,356.672119 315.688599,359.370850 314.925629,363.035461 
	C313.967072,367.639496 313.704590,372.394409 314.641785,376.940369 
	C315.203339,379.664215 315.321320,383.794708 319.894562,383.622833 
	C329.045685,383.278931 338.176147,382.477783 345.623901,376.371399 
	C347.589813,374.759644 348.734070,375.136810 350.340088,376.323578 
	C351.959473,377.520050 351.445618,378.664581 351.151459,380.499847 
	C350.283508,385.914276 345.634644,388.995209 344.027802,394.032532 
	C338.162689,412.419220 331.696930,430.614258 325.294678,449.634949 
M293.881989,432.515472 
	C289.226562,438.803894 284.538971,445.068970 279.940796,451.398987 
	C278.923706,452.799164 277.125885,454.150604 278.228790,456.224670 
	C279.362213,458.356232 281.398376,458.937622 283.734833,458.925018 
	C292.060577,458.880005 300.387299,458.851837 308.712494,458.933075 
	C312.598999,458.971008 314.087860,457.637909 313.301270,453.484497 
	C311.974396,446.478210 311.061249,439.419586 313.078339,432.287415 
	C314.011078,428.989441 310.221497,424.974121 307.011810,426.071442 
	C302.619446,427.573120 298.536591,429.980133 293.881989,432.515472 
M256.500061,525.358582 
	C236.481293,525.368286 216.462524,525.377991 196.443756,525.387695 
	C196.456360,525.884827 196.468948,526.381958 196.481552,526.879089 
	C202.392059,529.053650 447.715790,528.507996 451.914764,525.359863 
	C386.264618,525.359863 321.882355,525.359863 256.500061,525.358582 
M336.490021,389.439087 
	C329.736145,391.821228 322.910797,393.857239 315.745941,394.686829 
	C312.784912,395.029694 310.576385,394.238403 308.683624,392.020203 
	C307.756805,390.933990 307.243866,389.322021 305.504883,389.092957 
	C302.182495,396.649048 304.459106,400.367004 312.013458,399.481598 
	C314.171967,399.228638 315.935608,399.008881 317.150726,401.186829 
	C318.293152,403.234528 317.700867,404.963165 316.453796,406.734772 
	C315.714203,407.785431 314.609100,408.713837 314.686340,410.670288 
	C317.488495,413.023407 320.394257,415.763306 323.605408,418.079834 
	C327.150970,420.637543 329.056335,423.837402 328.838715,428.363403 
	C332.994385,416.602631 336.816833,404.934143 340.621185,393.259735 
	C341.660248,390.071075 341.661102,387.701050 336.490021,389.439087 
M288.178009,433.720215 
	C288.994598,432.670105 289.905487,431.678650 290.604828,430.555511 
	C291.562286,429.017883 293.877808,427.490601 291.267639,425.555756 
	C288.849121,423.762970 287.657806,426.002106 286.410248,427.401794 
	C284.310791,429.757202 282.329926,432.222260 280.374115,434.700317 
	C279.301788,436.058899 278.172485,437.276306 276.300903,437.161530 
	C273.756836,437.005493 272.431580,438.454071 271.227386,440.439880 
	C269.142670,443.877808 266.279419,446.689209 263.375519,449.434814 
	C261.900787,450.829224 260.634094,452.341736 260.057495,454.324097 
	C259.249725,457.101074 261.846924,458.888824 263.020630,457.893219 
	C266.988831,454.527130 272.975555,455.020355 276.167847,450.525909 
	C280.017029,445.106537 283.909271,439.717682 288.178009,433.720215 
M305.761169,550.688416 
	C309.284546,550.477966 308.970612,553.877625 310.384277,555.639587 
	C311.580200,557.130188 311.699036,559.875366 314.837646,559.426086 
	C314.696533,556.164490 312.653534,554.021423 311.450928,551.547363 
	C310.372650,549.329041 310.019165,547.606506 312.524475,546.063538 
	C314.627747,544.768188 317.087799,543.240234 315.886169,540.184631 
	C314.808777,537.444946 312.321136,536.525146 309.453369,536.271667 
	C300.513275,535.481628 300.261932,535.671875 300.282928,544.700134 
	C300.288361,547.029419 300.129272,549.368530 300.295319,551.685242 
	C300.475128,554.193420 299.442719,556.917603 301.406494,559.553528 
	C304.031250,557.082092 302.124664,552.943542 305.761169,550.688416 
M387.520996,536.930542 
	C374.907013,533.996887 373.312469,535.179077 373.370270,547.439575 
	C373.381256,549.770752 373.334656,552.106873 373.474030,554.431152 
	C373.574921,556.113403 372.528748,558.131287 374.668396,559.413269 
	C376.846466,559.150330 376.615021,557.492920 376.631958,556.043335 
	C376.668945,552.881165 376.698242,549.717712 376.654175,546.555908 
	C376.506622,535.969116 376.593201,535.879272 387.520996,536.930542 
M357.455780,560.402222 
	C358.567169,560.236389 359.678528,560.070557 361.697693,559.769287 
	C353.586700,558.938660 350.989349,556.949402 349.329803,551.046692 
	C347.962769,546.184265 349.384796,541.888611 353.005127,538.866211 
	C358.304779,534.441833 363.447998,536.973022 368.229065,540.605042 
	C364.015991,535.849854 357.791626,534.644226 352.566895,537.354431 
	C347.478180,539.994141 345.662750,544.347839 346.253021,549.812683 
	C346.930420,556.084290 351.318329,558.754761 357.455780,560.402222 
M273.511963,553.975586 
	C276.309174,554.150696 276.824768,553.198486 275.381531,550.739502 
	C273.284454,547.166687 271.457642,543.436157 269.459473,539.803772 
	C268.604828,538.250244 267.966614,536.333252 264.906311,536.674194 
	C264.906311,543.491211 264.906311,550.390259 264.906311,555.811035 
	C265.279541,552.438477 263.800049,547.339050 265.926453,541.895020 
	C269.903961,545.566101 270.811859,549.992554 273.511963,553.975586 
M287.609772,557.591492 
	C287.624695,551.460815 287.648560,545.330139 287.646942,539.199463 
	C287.646637,537.995850 287.480469,536.747559 285.971375,536.580933 
	C284.490753,536.417480 283.696655,537.474915 283.879425,538.726074 
	C284.771515,544.833252 284.151886,550.970886 284.446838,557.083191 
	C284.544250,559.102356 285.384949,560.459656 287.609772,557.591492 
M390.007812,493.427063 
	C394.832550,499.745758 399.657288,506.064484 405.210297,513.336975 
	C405.489868,510.000763 405.652405,508.061493 405.821960,506.038177 
	C403.344330,507.376221 402.389191,505.371368 401.369995,504.081696 
	C398.502014,500.452484 395.804688,496.688416 393.041260,492.976654 
	C392.144653,491.772339 391.234192,490.551453 389.592682,490.380402 
	C388.168091,490.231964 387.304016,490.979675 387.411865,492.384979 
	C387.541016,494.067017 389.076019,492.158661 390.007812,493.427063 
M336.480713,545.943970 
	C335.625122,543.617126 334.739624,541.300720 333.922485,538.960449 
	C333.139343,536.717712 331.926239,535.756836 329.017426,537.433716 
	C334.806671,543.843506 332.747467,553.689453 340.695679,560.379517 
	C340.208527,554.686829 337.865265,550.838135 336.480713,545.943970 
M366.260315,498.475861 
	C370.976501,512.346619 370.976501,512.346619 373.956879,513.015320 
	C371.830566,501.419098 367.061310,491.332458 363.357819,490.836853 
	C364.256073,493.176300 365.134979,495.465454 366.260315,498.475861 
M324.764435,511.819153 
	C326.774139,510.315308 327.291412,508.944855 325.864807,507.823303 
	C321.067932,504.052185 318.450775,498.588470 314.754517,493.971802 
	C313.311920,492.169952 311.932495,490.513947 308.678009,490.862183 
	C314.147217,498.021027 319.261444,504.715240 324.764435,511.819153 
M252.774109,497.745850 
	C252.774109,495.315826 252.774109,492.885803 252.774109,490.402252 
	C250.157455,490.038025 248.062576,490.941071 249.058701,493.081818 
	C251.480469,498.286407 249.487244,503.587280 250.243027,508.764801 
	C250.460480,510.254517 249.412674,512.163757 252.176208,513.410156 
	C253.509384,508.404022 252.506149,503.489563 252.774109,497.745850 
M295.017090,542.887451 
	C294.546967,540.805603 296.317749,538.381287 294.184998,536.414246 
	C291.491058,539.654663 291.518005,556.461792 295.018250,560.529480 
	C295.018250,554.278748 295.018250,549.033752 295.017090,542.887451 
M380.026337,504.348785 
	C380.604889,507.300812 378.984039,510.481354 380.745300,513.545227 
	C383.581726,510.078888 383.403778,493.146515 380.017792,489.865326 
	C380.017792,494.805756 380.017792,499.109497 380.026337,504.348785 
M273.192291,490.311371 
	C270.824707,489.294739 268.445343,488.908478 265.889587,490.411926 
	C271.056946,489.704681 274.438751,492.314392 277.001831,496.213562 
	C279.450195,499.938232 280.352997,504.046692 279.161713,508.523254 
	C283.737396,500.533478 281.847351,494.368103 273.192291,490.311371 
M257.704712,504.620117 
	C260.731903,511.626038 264.432861,514.045959 271.098267,513.149963 
	C266.703705,512.254578 263.650848,509.960388 261.620850,506.246033 
	C259.609497,502.565704 259.146362,498.681396 260.039734,494.547577 
	C257.825348,497.385773 256.979675,500.462891 257.704712,504.620117 
M289.790588,508.832733 
	C289.042206,505.737457 288.992065,502.583130 288.800507,499.421936 
	C288.628723,496.586639 290.087585,493.354950 287.385773,490.576752 
	C284.074097,500.346680 286.049255,510.033264 291.614532,512.056580 
	C291.054901,511.168945 290.530426,510.337067 289.790588,508.832733 
M237.290619,498.108704 
	C233.827118,491.344666 233.827118,491.344666 229.848190,490.980957 
	C233.547699,496.657928 235.689529,502.678131 240.416214,508.451111 
	C241.621490,503.604340 238.262741,501.647034 237.290619,498.108704 
M341.656952,495.850098 
	C341.337280,494.196075 342.385559,492.192688 339.431274,490.211761 
	C339.176941,497.269653 338.556763,503.565491 340.381348,509.828705 
	C342.272644,505.539001 341.471497,501.113678 341.656952,495.850098 
M366.957458,557.463623 
	C369.830505,554.106812 369.521606,550.938110 365.671112,549.632568 
	C365.909058,552.325500 366.128662,554.810730 366.957458,557.463623 
M308.213318,499.911163 
	C308.213318,504.116119 308.213318,508.321075 308.213318,512.526001 
	C308.410339,512.515930 308.607361,512.505859 308.804382,512.495789 
	C308.804382,506.759277 308.804382,501.022797 308.804382,495.286316 
	C308.606934,495.286102 308.409515,495.285919 308.212067,495.285736 
	C308.212067,496.548645 308.212067,497.811554 308.213318,499.911163 
z"/>
<path fill="#000000" opacity="1.000000" stroke="none" 
	d="
M254.653015,288.306305 
	C245.452744,277.913239 233.360214,272.899017 221.289688,267.942871 
	C218.252487,266.695801 215.363876,268.637146 213.292114,270.619629 
	C211.582199,272.255859 212.890808,274.024231 214.911652,274.821869 
	C219.155121,276.496765 222.400818,279.104187 223.719299,283.683044 
	C223.846619,284.125122 224.244339,284.595856 224.646271,284.836761 
	C233.995544,290.440186 239.811142,300.197449 249.282196,305.688904 
	C254.788635,308.881592 258.605927,314.780731 259.545654,320.931671 
	C256.395599,320.286285 254.852097,317.705658 253.168137,315.702332 
	C248.737381,310.431152 243.210449,309.290802 236.956314,310.837952 
	C233.612289,311.665192 230.842926,311.454407 228.140945,309.133392 
	C224.607330,306.097992 220.095703,305.268250 215.709137,304.302582 
	C208.188629,302.647064 201.502304,299.822266 196.967682,293.036499 
	C195.242798,290.455353 192.808289,288.233032 190.347961,286.289246 
	C187.567154,284.092224 184.313339,282.594391 180.595901,284.007599 
	C175.079910,286.104523 169.515228,285.794678 163.884781,284.620087 
	C160.561432,283.926788 157.255127,283.488129 155.613220,287.524567 
	C161.104813,292.375214 166.429138,297.078125 171.753479,301.781036 
	C171.508331,302.152161 171.263199,302.523285 171.018051,302.894409 
	C165.552307,300.798370 159.758011,299.288818 154.704117,296.457642 
	C148.416595,292.935333 142.804108,292.914215 136.987030,296.865967 
	C132.940491,299.614929 128.531815,301.243896 123.700211,302.257233 
	C116.962227,303.670410 112.462395,309.166168 106.814468,312.608124 
	C104.604492,313.954895 102.764259,315.948212 100.112320,316.645599 
	C99.149902,314.584900 100.658638,313.945740 101.609917,313.229675 
	C122.100716,297.805511 142.157852,281.741302 164.733551,269.333954 
	C170.926102,265.930603 176.971848,262.099274 184.814499,263.333984 
	C187.800858,263.804199 190.691620,261.350769 193.221481,259.380188 
	C203.123779,251.667175 211.089676,241.937820 220.254181,233.457901 
	C223.802185,230.174957 227.371445,226.935883 231.804169,224.798141 
	C235.654358,222.941345 238.974899,223.455627 241.605362,226.811935 
	C244.685333,230.741821 247.490204,234.887695 250.580444,238.809036 
	C255.111923,244.559174 257.920197,244.919434 263.389587,240.122772 
	C270.884125,233.550049 278.172058,226.741806 285.116302,220.427536 
	C285.296783,218.199432 284.096283,217.658020 283.275787,216.913162 
	C275.671234,210.009781 273.985443,201.394257 276.278839,191.817001 
	C278.564026,182.274307 285.068268,176.623611 294.302979,174.364380 
	C304.272522,171.925400 312.472260,175.732697 318.577209,183.475128 
	C321.709167,187.447144 324.280365,188.363312 328.368896,185.256134 
	C330.187317,183.874176 332.413086,182.892532 334.597473,182.153305 
	C341.029236,179.976700 343.203156,180.717896 347.622437,185.984406 
	C356.508545,196.574081 365.088684,207.433548 374.987671,217.133530 
	C379.159882,221.221817 383.468231,225.131256 388.660065,227.938614 
	C391.920044,229.701324 395.058960,230.867905 399.072754,230.245529 
	C403.969879,229.486221 408.056580,232.175232 411.487640,235.556137 
	C414.334900,238.361755 416.951569,241.404739 419.843750,244.160614 
	C424.893494,248.972397 428.648621,249.054291 433.721100,244.194351 
	C437.079895,240.976303 440.008606,237.312012 443.173859,233.888184 
	C444.641357,232.300842 446.105957,230.681442 447.758972,229.300507 
	C452.643555,225.219864 455.627838,225.014435 460.664673,228.794418 
	C480.303955,243.533035 498.066223,260.393402 515.395813,277.716400 
	C525.293884,287.610718 535.059448,297.647430 543.989441,308.443634 
	C545.587341,310.375519 547.775635,312.156586 547.725281,315.453735 
	C544.406189,315.718811 542.747375,313.481537 540.824219,311.813660 
	C534.921753,306.694885 529.696838,300.818848 522.942566,296.652374 
	C515.869080,292.289001 507.820618,293.860596 499.318604,291.655975 
	C504.928070,298.957672 511.596130,303.892212 515.979309,311.294769 
	C513.282715,311.974243 512.142395,310.296997 510.887482,309.248657 
	C503.075470,302.722473 494.973755,296.658081 486.015625,291.724487 
	C477.286346,286.916962 469.967957,280.224396 464.115906,272.266144 
	C458.157135,264.162689 450.744904,259.567780 440.662811,259.178650 
	C437.097870,259.041077 433.713196,257.064758 428.862488,257.949432 
	C435.454224,267.079559 443.788391,274.241821 448.285187,284.436554 
	C445.788574,285.289459 444.896362,283.618164 443.847534,282.563751 
	C438.206757,276.892883 432.662659,271.125244 426.983124,265.493896 
	C425.222351,263.748047 423.358063,261.860962 421.167633,260.839569 
	C414.238678,257.608582 411.316437,251.663116 409.730011,244.813599 
	C407.415039,234.818634 397.835510,231.718872 390.275848,238.732635 
	C388.917358,239.993011 387.690765,239.836868 386.176544,239.485397 
	C381.535370,238.408112 378.230957,235.517532 375.385468,231.880463 
	C367.480316,221.776154 359.752960,211.525192 351.128815,202.005386 
	C349.116241,199.783798 347.105408,197.548798 344.938385,195.482956 
	C343.312561,193.933044 341.740417,191.229111 339.262695,192.167313 
	C336.411499,193.246902 337.401703,196.382370 337.272644,198.814651 
	C337.020203,203.573822 339.999023,206.654343 343.129974,209.340973 
	C353.213501,217.993652 355.046387,231.298996 361.975464,241.932983 
	C355.708527,239.637436 350.553009,235.995575 346.287201,231.215561 
	C342.965790,227.493713 340.074127,223.391647 336.879242,219.551956 
	C335.634705,218.056274 334.323730,216.254379 331.947449,216.798447 
	C329.472687,217.365082 329.844299,219.681595 329.059113,221.443497 
	C325.878357,228.581024 331.255402,234.293991 331.984009,240.753891 
	C332.266693,243.260330 335.405945,244.694427 337.900024,245.737091 
	C347.229431,249.637253 354.863586,255.382980 359.917847,264.430176 
	C363.408478,270.678406 368.863159,275.049835 375.103577,278.545471 
	C379.046661,280.754272 383.025055,283.065430 385.598969,287.269531 
	C374.215698,282.623718 361.436493,282.312164 351.102539,275.020844 
	C350.830505,274.828918 350.594452,274.581299 350.310608,274.411560 
	C348.112213,273.096588 346.188934,270.594421 343.193390,272.251923 
	C341.418396,273.234070 341.040497,275.127625 341.057617,277.036743 
	C341.088867,280.524475 343.815674,281.245880 346.365631,282.082336 
	C349.278076,283.037720 351.454590,284.510132 351.386230,288.021301 
	C351.338440,290.475616 353.007507,291.924744 354.822174,293.204041 
	C364.342896,299.915710 370.874603,309.599976 379.077057,317.623108 
	C379.350067,317.890106 379.302063,318.485291 379.576233,319.678375 
	C372.858337,316.763489 366.747925,313.909180 361.831299,309.161926 
	C355.350616,302.904480 348.125153,298.423859 339.226044,296.126617 
	C332.027985,294.268494 325.238251,290.860657 318.216675,288.278137 
	C311.348572,285.752045 308.961212,286.907501 306.414398,293.657471 
	C304.864532,297.765137 303.361938,298.266144 299.877808,295.281372 
	C296.467377,292.359741 293.362854,289.081177 290.123108,285.960205 
	C284.123962,280.181030 278.167542,274.356415 272.099365,268.650604 
	C270.166840,266.833496 268.134735,264.944733 265.807190,263.756989 
	C257.286499,259.408966 247.949112,256.451111 241.417267,248.524185 
	C243.284088,256.848999 249.611115,262.449677 252.699982,269.691864 
	C255.800934,276.962402 256.878479,285.028656 261.470520,291.936951 
	C257.824768,292.499908 256.747467,289.909363 254.653015,288.306305 
z"/>
<path fill="#000000" opacity="1.000000" stroke="none" 
	d="
M312.003540,544.636353 
	C309.523682,547.176514 307.003174,548.981506 303.633484,550.169983 
	C302.169098,546.401855 302.449646,542.542236 303.220062,539.023804 
	C304.030670,535.321716 307.497406,536.562378 309.858978,537.282532 
	C313.558075,538.410522 314.117462,541.073242 312.003540,544.636353 
z"/>
</svg>